<?xml version="1.0" encoding="UTF-8"?>
<svg xmlns="http://www.w3.org/2000/svg" xmlns:xlink="http://www.w3.org/1999/xlink" viewBox="0 0 24 24" width="24px" height="24px">
<g id="surface162347743">
<path style=" stroke:none;fill-rule:nonzero;fill:rgb(18.431373%,21.176471%,23.921569%);fill-opacity:1;" d="M 12.25 22.582031 L 3.5 17.410156 L 3.5 7.089844 L 12.25 1.917969 L 21 7.089844 L 21 17.410156 Z M 4.5 16.839844 L 12.25 21.417969 L 20 16.839844 L 20 7.660156 L 12.25 3.082031 L 4.5 7.660156 Z M 4.5 16.839844 "/>
<path style=" stroke:none;fill-rule:nonzero;fill:rgb(18.431373%,21.176471%,23.921569%);fill-opacity:1;" d="M 14 2.75 C 14 3.714844 13.214844 4.5 12.25 4.5 C 11.285156 4.5 10.5 3.714844 10.5 2.75 C 10.5 1.785156 11.285156 1 12.25 1 C 13.214844 1 14 1.785156 14 2.75 Z M 14 2.75 "/>
<path style=" stroke:none;fill-rule:nonzero;fill:rgb(18.431373%,21.176471%,23.921569%);fill-opacity:1;" d="M 14 21.75 C 14 22.714844 13.214844 23.5 12.25 23.5 C 11.285156 23.5 10.5 22.714844 10.5 21.75 C 10.5 20.785156 11.285156 20 12.25 20 C 13.214844 20 14 20.785156 14 21.75 Z M 14 21.75 "/>
<path style=" stroke:none;fill-rule:nonzero;fill:rgb(18.431373%,21.176471%,23.921569%);fill-opacity:1;" d="M 6 16.75 C 6 17.714844 5.214844 18.5 4.25 18.5 C 3.285156 18.5 2.5 17.714844 2.5 16.75 C 2.5 15.785156 3.285156 15 4.25 15 C 5.214844 15 6 15.785156 6 16.75 Z M 6 16.75 "/>
<path style=" stroke:none;fill-rule:nonzero;fill:rgb(18.431373%,21.176471%,23.921569%);fill-opacity:1;" d="M 22 16.75 C 22 17.714844 21.214844 18.5 20.25 18.5 C 19.285156 18.5 18.5 17.714844 18.5 16.75 C 18.5 15.785156 19.285156 15 20.25 15 C 21.214844 15 22 15.785156 22 16.75 Z M 22 16.75 "/>
<path style=" stroke:none;fill-rule:nonzero;fill:rgb(18.431373%,21.176471%,23.921569%);fill-opacity:1;" d="M 6 7.75 C 6 8.714844 5.214844 9.5 4.25 9.5 C 3.285156 9.5 2.5 8.714844 2.5 7.75 C 2.5 6.785156 3.285156 6 4.25 6 C 5.214844 6 6 6.785156 6 7.75 Z M 6 7.75 "/>
<path style=" stroke:none;fill-rule:nonzero;fill:rgb(18.431373%,21.176471%,23.921569%);fill-opacity:1;" d="M 22 7.75 C 22 8.714844 21.214844 9.5 20.25 9.5 C 19.285156 9.5 18.5 8.714844 18.5 7.75 C 18.5 6.785156 19.285156 6 20.25 6 C 21.214844 6 22 6.785156 22 7.75 Z M 22 7.75 "/>
<path style=" stroke:none;fill-rule:nonzero;fill:rgb(18.431373%,21.176471%,23.921569%);fill-opacity:1;" d="M 21.359375 17.5 L 3.140625 17.5 L 12.25 1.488281 Z M 4.859375 16.5 L 19.640625 16.5 L 12.25 3.511719 Z M 4.859375 16.5 "/>
</g>
</svg>
